<mxfile host="app.diagrams.net" modified="2023-04-28T08:16:24.653Z" agent="Mozilla/5.0 (X11; Linux x86_64) AppleWebKit/537.36 (KHTML, like Gecko) Chrome/109.0.0.0 Safari/537.36" version="21.2.3" etag="T0wOwWJIADVmmXeXT9uO" type="github">
  <diagram name="Seite-1" id="MxA9UmNx2c2RoEx-4-kS">
    <mxGraphModel>
      <root>
        <mxCell id="0" />
        <mxCell id="1" parent="0" />
      </root>
    </mxGraphModel>
  </diagram>
</mxfile>
